<svg id="Layer_1" data-name="Layer 1" xmlns="http://www.w3.org/2000/svg" xmlns:xlink="http://www.w3.org/1999/xlink" viewBox="0 0 248.85 336.77"><defs><style>.cls-1{fill:none;}.cls-2{fill:#589040;}.cls-3{clip-path:url(#clip-path);}.cls-4{fill:#337d3d;}.cls-5{fill:#fff;}</style><clipPath id="clip-path" transform="translate(-58.68 -16.45)"><path class="cls-1" d="M301.32,137.77a121.07,121.07,0,0,1-6.41,39C269.33,247,263.72,296.41,252,300.21c-21.47,7.93-22.79-48.55-47.47-43.6a122.6,122.6,0,0,1-45.81.62c-9-1.59-18.94,11.24-27.1,7.81-17.18-7.43-10.57-19.16-29.54-34.28a121.32,121.32,0,1,1,199.25-93Z"/></clipPath></defs><title>dank_logo</title><path class="cls-2" d="M301.32,137.77a121.07,121.07,0,0,1-6.41,39C269.33,247,263.72,296.41,252,300.21c-21.47,7.93-22.79-48.55-47.47-43.6a122.6,122.6,0,0,1-45.81.62c-9-1.59-18.94,11.24-27.1,7.81-14.1-5.56-10.57-19.16-29.54-34.28a121.32,121.32,0,1,1,199.25-93Z" transform="translate(-58.68 -16.45)"/><g class="cls-3"><polygon id="Shadow" class="cls-4" points="108.47 211.06 193.37 298.35 248.85 232.51 242.04 133.43 158.34 48.9 100.89 51.3 83.94 86.53 103.31 110.53 140.3 123.74 153.73 143.34 148.89 174.83 116.52 192.66 108.47 211.06"/></g><path class="cls-5" d="M180.65,118.55c-12.75-1.07-24-8.85-25.13-21.13-1.37-15.3,11.85-24.75,25.13-23.13,13,1.6,19.1,7,19.56,19.76a2.4,2.4,0,0,0,2.95,2.25l23.72-5.38a3.27,3.27,0,0,0,2.45-4c-5.31-19-18.22-29.13-33.65-33.37v-8.6a4.64,4.64,0,0,0-4.62-4.63H170.41a4.64,4.64,0,0,0-4.62,4.63v7.24c-22.36,4.27-37.88,21.15-36.91,45.27,1,25.36,20.94,43.92,52.61,49.24,12.27,2.06,22,12,22.85,24.42,1,14.28-9.62,22.55-23.69,22.77-12.39.2-27.08-11.59-30.09-22.76a1.66,1.66,0,0,0-1.88-1.21l-22.81,3.58a2.18,2.18,0,0,0-1.77,2.66c5.36,22.23,22.34,35.72,41.69,40.24v7.89a4.63,4.63,0,0,0,4.62,4.62h20.65a4.63,4.63,0,0,0,4.62-4.62v-7.72c22.88-5,36.2-21.61,38.45-44.05C237.22,141.67,214.79,121.41,180.65,118.55Z" transform="translate(-58.68 -16.45)"/><path class="cls-2" d="M131.28,290.14s-20.48,31-20.48,43.92,13.87,19.16,20.48,19.16,21.13-5,21.13-20.48C152.41,320.52,131.28,290.14,131.28,290.14Z" transform="translate(-58.68 -16.45)"/></svg>