<?xml version="1.0" encoding="iso-8859-1"?>
<!-- Generator: Adobe Illustrator 19.0.0, SVG Export Plug-In . SVG Version: 6.00 Build 0)  -->
<svg version="1.1" id="Capa_1" xmlns="http://www.w3.org/2000/svg" xmlns:xlink="http://www.w3.org/1999/xlink" x="0px" y="0px"
	 viewBox="0 0 512 512" style="enable-background:new 0 0 512 512;" xml:space="preserve">
<g>
	<g>
		<path d="M456.185,21.82c-15.268,0-28.217,10.118-32.497,24h-42.587c-5.523,0-10,4.477-10,10s4.477,10,10,10h42.587
			c4.281,13.882,17.229,24,32.497,24c18.748,0,34-15.252,34-34S474.933,21.82,456.185,21.82z M456.185,69.82
			c-7.192,0-13.129-5.453-13.908-12.442c0.08-0.509,0.133-1.027,0.133-1.558s-0.054-1.049-0.133-1.558
			c0.779-6.988,6.716-12.442,13.908-12.442c7.72,0,14,6.28,14,14C470.185,63.54,463.905,69.82,456.185,69.82z"/>
	</g>
</g>
<g>
	<g>
		<path d="M350.26,48.752c-1.87-1.86-4.44-2.93-7.07-2.93c-2.64,0-5.21,1.07-7.08,2.93c-1.86,1.86-2.92,4.44-2.92,7.07
			s1.06,5.21,2.92,7.07c1.87,1.86,4.44,2.93,7.08,2.93c2.63,0,5.2-1.07,7.07-2.93c1.86-1.86,2.92-4.44,2.92-7.07
			S352.12,50.612,350.26,48.752z"/>
	</g>
</g>
<g>
	<g>
		<path d="M509.071,349.017L366.178,206.125c-5.813-5.813-14.478-7.539-22.073-4.391c-7.596,3.146-12.503,10.492-12.503,18.713
			v25.551H180.398V211.09c13.882-4.281,24-17.229,24-32.497c0-18.748-15.252-34-34-34s-34,15.252-34,34
			c0,15.268,10.118,28.217,24,32.497v80.464c0,0.088-0.008,0.135-0.006,0.141c-0.062,0.069-0.241,0.143-0.302,0.143
			c-0.002,0,0.054,0.077-0.126-0.104L24.142,155.911L159.964,20.089c0.063-0.062,0.102-0.09,0.104-0.095
			c0.092,0.004,0.275,0.071,0.315,0.114c0,0,0.015,0.047,0.015,0.162v35.55c0,5.523,4.477,10,10,10h131.703c5.523,0,10-4.477,10-10
			s-4.477-10-10-10H180.398V20.269c0-8.221-4.908-15.566-12.503-18.713c-7.596-3.146-16.259-1.422-22.073,4.391L2.929,148.84
			c-3.905,3.905-3.905,10.237,0,14.142l142.894,142.894c5.813,5.813,14.478,7.536,22.073,4.39
			c7.595-3.146,12.503-10.491,12.503-18.712v-25.556h151.185v48.243c-13.882,4.281-24,17.229-24,32.497c0,18.748,15.252,34,34,34
			s34-15.252,34-34c0-15.268-10.118-28.217-24-32.497l0.018-93.794c0-0.088,0.008-0.136,0.006-0.141
			c0.062-0.069,0.241-0.143,0.301-0.143c0.001,0-0.055-0.078,0.127,0.104l135.822,135.822L352.036,491.911
			c-0.062,0.062-0.102,0.09-0.104,0.095c-0.1,0.021-0.276-0.07-0.316-0.113c0,0-0.015-0.047-0.015-0.162v-35.552
			c0-5.523-4.477-10-10-10H168c-5.523,0-10,4.477-10,10s4.477,10,10,10h163.602v25.552c0,8.221,4.908,15.566,12.503,18.712
			c2.521,1.044,5.159,1.552,7.772,1.552c5.26,0,10.417-2.058,14.301-5.942L509.071,363.16
			C512.976,359.254,512.976,352.922,509.071,349.017z M170.398,192.593c-7.72,0-14-6.28-14-14c0-7.72,6.281-14,14-14
			c7.72,0,14,6.28,14,14C184.398,186.313,178.118,192.593,170.398,192.593z M355.583,346.737c0,7.72-6.28,14-14,14
			c-7.72,0-14-6.28-14-14c0-7.72,6.28-14,14-14C349.303,332.737,355.583,339.017,355.583,346.737z"/>
	</g>
</g>
<g>
	<g>
		<path d="M129.4,449.112c-1.86-1.87-4.43-2.93-7.07-2.93c-2.63,0-5.21,1.06-7.07,2.93c-1.86,1.86-2.93,4.44-2.93,7.07
			s1.07,5.21,2.93,7.07c1.86,1.86,4.44,2.93,7.07,2.93c2.64,0,5.21-1.07,7.07-2.93c1.87-1.86,2.93-4.44,2.93-7.07
			S131.27,450.972,129.4,449.112z"/>
	</g>
</g>
<g>
	<g>
		<path d="M55.818,422.216c-18.748,0-34,15.252-34,34s15.252,34,34,34s34-15.252,34-34S74.566,422.216,55.818,422.216z
			 M55.818,470.216c-7.72,0-14-6.28-14-14c0-7.72,6.28-14,14-14c7.72,0,14,6.28,14,14C69.818,463.936,63.538,470.216,55.818,470.216
			z"/>
	</g>
</g>
<g>
	<g>
		<path d="M363.333,86.002H250.585c-5.523,0-10,4.477-10,10s4.477,10,10,10h112.748c5.523,0,10-4.477,10-10
			S368.856,86.002,363.333,86.002z"/>
	</g>
</g>
<g>
	<g>
		<path d="M313.813,406.002H201.066c-5.523,0-10,4.477-10,10s4.477,10,10,10h112.747c5.523,0,10-4.477,10-10
			S319.336,406.002,313.813,406.002z"/>
	</g>
</g>
<g>
</g>
<g>
</g>
<g>
</g>
<g>
</g>
<g>
</g>
<g>
</g>
<g>
</g>
<g>
</g>
<g>
</g>
<g>
</g>
<g>
</g>
<g>
</g>
<g>
</g>
<g>
</g>
<g>
</g>
</svg>
